# xmcd CD database file
#
# Track frame offsets:
#	150
#	14158
#	27093
#	44779
#	58000
#	77002
#	94409
#	105038
#	124828
#	142646
#	162888
#	176722
#	192848
#
# Disc length: 2820 seconds
#
# Revision: 0
# Processed by: cddbd v1.5.1PL2 Copyright (c) Steve Scherf et al.
# Submitted via: CDex 1.51
#
DISCID=a70b020d
DTITLE=Westend - Remembrin´ the roots
DYEAR=2000
DGENRE=Country
TTITLE0=Ashes of love
TTITLE1=Tequila Sunrise
TTITLE2=Chattahoochee
TTITLE3=Love reunited
TTITLE4=Margaritaville
TTITLE5=Sieben Pfennig
TTITLE6=Linda on my mind
TTITLE7=Lyin Eyes
TTITLE8=City of New Orleans
TTITLE9=Be back home again
TTITLE10=Why do I have to choose
TTITLE11=Ole bough road
TTITLE12=Carolina
EXTD=YEAR: 2000
EXTT0=
EXTT1=
EXTT2=
EXTT3=
EXTT4=
EXTT5=
EXTT6=
EXTT7=
EXTT8=
EXTT9=
EXTT10=
EXTT11=
EXTT12=
PLAYORDER=
